<?xml version="1.0" encoding="UTF-8"?>
<svg version="1.1" xmlns="http://www.w3.org/2000/svg" width="232" height="239">
<path d="M0 0 C1.31856995 -0.00511093 2.63713989 -0.01022186 3.9956665 -0.01548767 C7.58044603 -0.02876528 11.16511941 -0.02946912 14.7499187 -0.02692437 C17.75659518 -0.02584717 20.76325083 -0.03075692 23.76992279 -0.03552979 C30.86958058 -0.04658567 37.96918545 -0.04708428 45.06884766 -0.04101562 C52.36307977 -0.03497604 59.65711898 -0.04729543 66.9513182 -0.06858569 C73.24298299 -0.08626615 79.53458673 -0.09219302 85.82627541 -0.08894795 C89.57126853 -0.08714551 93.31612395 -0.08966652 97.06109428 -0.10366249 C100.58496893 -0.1163422 104.1085451 -0.11420234 107.63241577 -0.1012516 C109.52176206 -0.09780195 111.41111791 -0.10898795 113.3004303 -0.12081909 C127.6320669 -0.03365769 140.98751358 3.62078664 151.74047852 13.52075195 C160.3155414 22.77604819 164.46376229 32.98210312 164.51264954 45.55895996 C164.52338249 47.45951645 164.52338249 47.45951645 164.53433228 49.39846802 C164.53717224 50.79534887 164.539884 52.19223 164.54248047 53.58911133 C164.54874998 55.06627562 164.55539721 56.54343834 164.56239319 58.02059937 C164.58338538 62.86569125 164.59379395 67.71078325 164.60375977 72.5559082 C164.60780972 74.22877519 164.61192671 75.90164201 164.61610985 77.57450867 C164.63515422 85.43885827 164.64938446 93.30319856 164.65772182 101.16756678 C164.66747896 110.21987838 164.6937617 119.27194446 164.73422271 128.32416964 C164.76448159 135.33673184 164.77920008 142.34922409 164.78250283 149.36185026 C164.78484299 153.54241568 164.793667 157.72271862 164.818964 161.9032135 C164.84242032 165.84317095 164.84640839 169.78269639 164.83620262 173.72270584 C164.83571131 175.15889049 164.8419104 176.5950977 164.85575867 178.03121567 C164.99501731 193.34533265 161.55834789 205.56361862 151.17797852 216.9621582 C135.11194478 232.01533329 112.20078951 229.73323823 91.77479243 229.67763472 C88.05294469 229.6699365 84.33111702 229.67711132 80.60926819 229.68179321 C74.36512201 229.68722096 68.12108297 229.68013748 61.87695312 229.66577148 C54.69797591 229.64944353 47.51925439 229.65474656 40.34028333 229.6712507 C34.13168774 229.6849427 27.92316831 229.68674807 21.71456248 229.67893469 C18.02600936 229.67430114 14.33757572 229.67351233 10.64903069 229.68354416 C6.53214688 229.693963 2.41569169 229.67945161 -1.70117188 229.6628418 C-2.89380646 229.66891449 -4.08644104 229.67498718 -5.31521606 229.6812439 C-18.13270155 229.58628239 -30.05050467 227.97024937 -40.63452148 220.2746582 C-41.52139648 219.6971582 -42.40827148 219.1196582 -43.32202148 218.5246582 C-52.43013665 209.66270832 -57.21122994 197.92948772 -57.76594925 185.27693081 C-57.76892391 184.21531766 -57.77189857 183.15370451 -57.77496338 182.05992126 C-57.78067352 180.83357971 -57.78638367 179.60723816 -57.79226685 178.34373474 C-57.79351198 176.99771128 -57.79463713 175.65168771 -57.7956543 174.30566406 C-57.80028752 172.87761305 -57.80531285 171.44956326 -57.81069946 170.02151489 C-57.82378019 166.15128649 -57.83026039 162.2810754 -57.83471012 158.41082835 C-57.83764892 155.98749675 -57.84175531 153.56416978 -57.84621429 151.14084053 C-57.85988019 143.54345947 -57.86955029 135.94608914 -57.87341619 128.34869665 C-57.87788953 119.6077303 -57.89540751 110.86692091 -57.92441678 102.12600225 C-57.9461124 95.35120866 -57.95612471 88.57645896 -57.9574573 81.80163103 C-57.95850006 77.76421184 -57.96429354 73.72694034 -57.98227692 69.68955803 C-57.9988937 65.88506436 -58.00084804 62.08082725 -57.99213791 58.27630997 C-57.99101426 56.23561468 -58.00462749 54.19492737 -58.01889038 52.15428162 C-57.96200008 39.42525762 -56.02251487 28.79215013 -48.63452148 18.2746582 C-48.05702148 17.3877832 -47.47952148 16.5009082 -46.88452148 15.5871582 C-34.00808084 2.35303865 -17.64462675 -0.03575273 0 0 Z " fill="#CDC8FA" transform="translate(61.634521484375,3.725341796875)"/>
<path d="M0 0 C21.98697602 0.13632655 39.24506703 5.16287147 57.37768555 17.50952148 C60.08508 19.4419039 60.08508 19.4419039 63.1706543 20.32983398 C65.31811878 19.44684375 65.31811878 19.44684375 67.56518555 18.01342773 C68.43183838 17.49893066 69.29849121 16.98443359 70.19140625 16.4543457 C71.11268311 15.89763184 72.03395996 15.34091797 72.9831543 14.76733398 C88.11929061 5.86859516 101.2727412 -0.04330398 119.0456543 0.07983398 C120.18518555 0.07209961 121.3247168 0.06436523 122.4987793 0.05639648 C124.12686523 0.06026367 124.12686523 0.06026367 125.7878418 0.06420898 C126.77381348 0.06646484 127.75978516 0.0687207 128.77563477 0.07104492 C131.1706543 0.32983398 131.1706543 0.32983398 133.1706543 2.32983398 C133.36880614 4.75813459 133.44348697 7.07237417 133.42944336 9.50170898 C133.43470032 10.60923523 133.43470032 10.60923523 133.44006348 11.73913574 C133.44888479 14.18613006 133.44303034 16.63283659 133.4362793 19.07983398 C133.43762583 20.77612361 133.43956627 22.47241287 133.44207764 24.16870117 C133.44502944 27.72635568 133.44072949 31.28390987 133.43139648 34.84155273 C133.42000188 39.40834539 133.42656106 43.97490299 133.43854141 48.54168701 C133.44575852 52.04518413 133.44347278 55.54862525 133.43828583 59.05212402 C133.43694892 60.73628772 133.4385985 62.42045644 133.44324493 64.10461426 C133.44830777 66.45586672 133.44060362 68.80673522 133.42944336 71.15795898 C133.43349182 71.85828247 133.43754028 72.55860596 133.44171143 73.28015137 C133.39918345 78.10130483 133.39918345 78.10130483 131.1706543 80.32983398 C128.73862246 80.44416915 126.42077229 80.44045969 123.99487305 80.34936523 C122.51116773 80.31913925 121.02744255 80.28987573 119.54370117 80.26147461 C117.21783405 80.20629937 114.89298679 80.14354816 112.56787109 80.0625 C102.01777199 79.7158685 93.84593334 80.54218562 84.1706543 85.32983398 C83.51073486 85.65040771 82.85081543 85.97098145 82.17089844 86.30126953 C80.70096255 87.06392805 79.2759915 87.91170719 77.8581543 88.76733398 C76.88104492 89.35385742 75.90393555 89.94038086 74.8972168 90.54467773 C71.73904965 92.61241755 68.8241614 94.87306713 65.98706055 97.36108398 C64.1706543 98.32983398 64.1706543 98.32983398 61.8659668 98.25170898 C58.36521738 97.05435121 55.51236759 95.15061451 52.4831543 93.07983398 C33.89776471 80.76585697 18.12953588 78.06716656 -4.0637207 80.30639648 C-5.43270508 80.31799805 -5.43270508 80.31799805 -6.8293457 80.32983398 C-9.26280375 77.89637593 -9.07110636 76.60132452 -9.10040283 73.28015137 C-9.09635437 72.57982788 -9.09230591 71.87950439 -9.08813477 71.15795898 C-9.0916394 70.41960815 -9.09514404 69.68125732 -9.09875488 68.92053223 C-9.1075762 66.47353791 -9.10172174 64.02683138 -9.0949707 61.57983398 C-9.09631724 59.88354436 -9.09825768 58.1872551 -9.10076904 56.4909668 C-9.10372084 52.93331229 -9.09942089 49.3757581 -9.09008789 45.81811523 C-9.07869329 41.25132258 -9.08525247 36.68476498 -9.09723282 32.11798096 C-9.10444993 28.61448384 -9.10216419 25.11104272 -9.09697723 21.60754395 C-9.09564032 19.92338025 -9.0972899 18.23921152 -9.10193634 16.55505371 C-9.10699917 14.20380125 -9.09929503 11.85293275 -9.08813477 9.50170898 C-9.09218323 8.8013855 -9.09623169 8.10106201 -9.10040283 7.3795166 C-9.03665721 0.15303972 -6.37635792 0.07117405 0 0 Z " fill="#CDC9FA" transform="translate(52.829345703125,109.670166015625)"/>
<path d="M0 0 C21.98697602 0.13632655 39.24506703 5.16287147 57.37768555 17.50952148 C60.08508 19.4419039 60.08508 19.4419039 63.1706543 20.32983398 C65.31811878 19.44684375 65.31811878 19.44684375 67.56518555 18.01342773 C68.43183838 17.49893066 69.29849121 16.98443359 70.19140625 16.4543457 C71.11268311 15.89763184 72.03395996 15.34091797 72.9831543 14.76733398 C88.11929061 5.86859516 101.2727412 -0.04330398 119.0456543 0.07983398 C120.18518555 0.07209961 121.3247168 0.06436523 122.4987793 0.05639648 C124.12686523 0.06026367 124.12686523 0.06026367 125.7878418 0.06420898 C126.77381348 0.06646484 127.75978516 0.0687207 128.77563477 0.07104492 C131.1706543 0.32983398 131.1706543 0.32983398 133.1706543 2.32983398 C133.36880614 4.75813459 133.44348697 7.07237417 133.42944336 9.50170898 C133.43470032 10.60923523 133.43470032 10.60923523 133.44006348 11.73913574 C133.44888479 14.18613006 133.44303034 16.63283659 133.4362793 19.07983398 C133.43762583 20.77612361 133.43956627 22.47241287 133.44207764 24.16870117 C133.44502944 27.72635568 133.44072949 31.28390987 133.43139648 34.84155273 C133.42000188 39.40834539 133.42656106 43.97490299 133.43854141 48.54168701 C133.44575852 52.04518413 133.44347278 55.54862525 133.43828583 59.05212402 C133.43694892 60.73628772 133.4385985 62.42045644 133.44324493 64.10461426 C133.44830777 66.45586672 133.44060362 68.80673522 133.42944336 71.15795898 C133.43349182 71.85828247 133.43754028 72.55860596 133.44171143 73.28015137 C133.39918345 78.10130483 133.39918345 78.10130483 131.1706543 80.32983398 C128.73862246 80.44416915 126.42077229 80.44045969 123.99487305 80.34936523 C122.51116773 80.31913925 121.02744255 80.28987573 119.54370117 80.26147461 C117.21783405 80.20629937 114.89298679 80.14354816 112.56787109 80.0625 C102.01777199 79.7158685 93.84593334 80.54218562 84.1706543 85.32983398 C83.51073486 85.65040771 82.85081543 85.97098145 82.17089844 86.30126953 C80.70096255 87.06392805 79.2759915 87.91170719 77.8581543 88.76733398 C76.88104492 89.35385742 75.90393555 89.94038086 74.8972168 90.54467773 C71.73904965 92.61241755 68.8241614 94.87306713 65.98706055 97.36108398 C64.1706543 98.32983398 64.1706543 98.32983398 61.8659668 98.25170898 C58.36521738 97.05435121 55.51236759 95.15061451 52.4831543 93.07983398 C33.89776471 80.76585697 18.12953588 78.06716656 -4.0637207 80.30639648 C-5.43270508 80.31799805 -5.43270508 80.31799805 -6.8293457 80.32983398 C-9.26280375 77.89637593 -9.07110636 76.60132452 -9.10040283 73.28015137 C-9.09635437 72.57982788 -9.09230591 71.87950439 -9.08813477 71.15795898 C-9.0916394 70.41960815 -9.09514404 69.68125732 -9.09875488 68.92053223 C-9.1075762 66.47353791 -9.10172174 64.02683138 -9.0949707 61.57983398 C-9.09631724 59.88354436 -9.09825768 58.1872551 -9.10076904 56.4909668 C-9.10372084 52.93331229 -9.09942089 49.3757581 -9.09008789 45.81811523 C-9.07869329 41.25132258 -9.08525247 36.68476498 -9.09723282 32.11798096 C-9.10444993 28.61448384 -9.10216419 25.11104272 -9.09697723 21.60754395 C-9.09564032 19.92338025 -9.0972899 18.23921152 -9.10193634 16.55505371 C-9.10699917 14.20380125 -9.09929503 11.85293275 -9.08813477 9.50170898 C-9.09218323 8.8013855 -9.09623169 8.10106201 -9.10040283 7.3795166 C-9.03665721 0.15303972 -6.37635792 0.07117405 0 0 Z M1.1706543 10.32983398 C1.1706543 29.79983398 1.1706543 49.26983398 1.1706543 69.32983398 C8.7606543 69.65983398 16.3506543 69.98983398 24.1706543 70.32983398 C37.70450725 72.84014542 49.72997257 78.70271283 61.1706543 86.32983398 C65.01760273 86.02504364 67.83599993 83.72064348 70.9831543 81.64233398 C88.42685726 70.45885302 101.24445657 70.32983398 123.1706543 70.32983398 C123.1706543 50.52983398 123.1706543 30.72983398 123.1706543 10.32983398 C108.82163096 9.7952297 108.82163096 9.7952297 95.7956543 12.89233398 C95.05508789 13.16190918 94.31452148 13.43148437 93.55151367 13.70922852 C83.64259058 17.46058667 75.32123132 22.78439559 67.42456055 29.82592773 C64.68051673 31.65687551 63.40929869 31.86623446 60.1706543 31.32983398 C57.91674805 30.04467773 57.91674805 30.04467773 55.6081543 28.26733398 C46.07544675 21.28702298 36.36445241 16.13542803 25.1706543 12.32983398 C24.49905273 12.08233398 23.82745117 11.83483398 23.13549805 11.57983398 C15.92454082 9.29768488 8.85812049 10.32983398 1.1706543 10.32983398 Z " fill="#7B6CC6" transform="translate(52.829345703125,109.670166015625)"/>
<path d="M0 0 C8.29241006 4.92577436 13.27297101 9.81230942 16.5625 18.9375 C17.0575 19.9275 17.0575 19.9275 17.5625 20.9375 C17.6594531 23.2900384 17.6922905 25.6454695 17.6875 28 C17.69136719 29.90458984 17.69136719 29.90458984 17.6953125 31.84765625 C17.5625 34.9375 17.5625 34.9375 16.5625 35.9375 C15.61375 35.97875 14.665 36.02 13.6875 36.0625 C7.8612858 36.7937738 3.31294949 40.74263088 -1.4375 43.9375 C-7.92304913 47.9375 -7.92304913 47.9375 -10.4375 47.9375 C-10.4375 48.5975 -10.4375 49.2575 -10.4375 49.9375 C-13.88947673 50.33201163 -15.1392938 50.15569966 -18 48.0625 C-19.2065625 47.010625 -19.2065625 47.010625 -20.4375 45.9375 C-21.74888904 45.22864106 -23.07527017 44.54293548 -24.4375 43.9375 C-24.4375 43.2775 -24.4375 42.6175 -24.4375 41.9375 C-25.159375 41.69 -25.88125 41.4425 -26.625 41.1875 C-29.71356582 39.81480408 -31.94761418 38.21396704 -34.4375 35.9375 C-34.4375 35.2775 -34.4375 34.6175 -34.4375 33.9375 C-37.0775 33.9375 -39.7175 33.9375 -42.4375 33.9375 C-43.175541 17.0445615 -43.175541 17.0445615 -38.4375 9.9375 C-37.7775 9.9375 -37.1175 9.9375 -36.4375 9.9375 C-36.21964844 9.35355469 -36.00179687 8.76960938 -35.77734375 8.16796875 C-34.00162825 5.21189425 -31.9282477 4.04272535 -29 2.25 C-28.03191406 1.64800781 -27.06382813 1.04601563 -26.06640625 0.42578125 C-18.63301703 -3.78242275 -7.67313284 -3.64533569 0 0 Z " fill="#EEC03E" transform="translate(128.4375,58.0625)"/>
<path d="M0 0 C2.7896888 2.14838103 5.48386826 4.35458114 8.13476562 6.66992188 C9.98340331 8.25006369 9.98340331 8.25006369 13 10 C18.08124248 9.14683447 21.18427751 5.17682401 24.71875 1.6796875 C27 0 27 0 29.41796875 -0.4921875 C32.94823247 0.18075233 34.97995604 1.81586972 37.8125 4 C38.78832031 4.7425 39.76414062 5.485 40.76953125 6.25 C41.50558594 6.8275 42.24164063 7.405 43 8 C42.28432449 11.20065992 41.80990262 13.09328037 39 15 C36.40497297 14.72683926 34.11067067 14.03338263 31.6171875 13.28125 C28.24426382 12.91878656 27.19174076 13.75962831 24.5 15.75 C23.72140625 16.30300781 22.9428125 16.85601562 22.140625 17.42578125 C21.08101562 18.20501953 21.08101562 18.20501953 20 19 C15.66645349 22.0531805 15.66645349 22.0531805 12.69921875 21.81640625 C8.36215796 20.50461796 5.32054851 17.60385087 1.81640625 14.8125 C-1.33398979 12.78506066 -3.25696489 12.05403332 -7 12 C-9.74578964 13.29930704 -9.74578964 13.29930704 -12.1875 15.3125 C-13.02667969 15.94800781 -13.86585937 16.58351562 -14.73046875 17.23828125 C-15.47941406 17.81964844 -16.22835937 18.40101563 -17 19 C-20 21 -20 21 -22.3203125 20.84765625 C-25.55445512 19.82461113 -28.02362223 18.27052857 -30.875 16.4375 C-35.60721656 13.4259543 -35.60721656 13.4259543 -41 12.8125 C-44 13 -44 13 -46.5 11.25 C-48 9 -48 9 -47.828125 7.03515625 C-46.27395059 3.21569932 -42.61578149 1.64228243 -39 0 C-34.44161158 -0.34187913 -31.43045953 2.76371567 -28.0625 5.52734375 C-25.71026475 7.20687536 -23.80952634 8.28128396 -21 9 C-18.72858551 8.08205492 -18.72858551 8.08205492 -16.6875 6.375 C-13.75431007 4.2484373 -10.89460616 2.25580418 -7.6875 0.5625 C-7.07261719 0.23378906 -6.45773438 -0.09492188 -5.82421875 -0.43359375 C-3.4772957 -1.16229577 -2.3195603 -0.76228145 0 0 Z " fill="#81B8E8" transform="translate(117,154)"/>
<path d="M0 0 C8.29241006 4.92577436 13.27297101 9.81230942 16.5625 18.9375 C17.0575 19.9275 17.0575 19.9275 17.5625 20.9375 C17.6594531 23.2900384 17.6922905 25.6454695 17.6875 28 C17.69136719 29.90458984 17.69136719 29.90458984 17.6953125 31.84765625 C17.5625 34.9375 17.5625 34.9375 16.5625 35.9375 C14.56291636 35.97830783 12.56204746 35.98004356 10.5625 35.9375 C10.8925 34.9475 11.2225 33.9575 11.5625 32.9375 C12.21480679 26.57750883 11.25149047 21.71384989 8.5625 15.9375 C8.03269531 15.42960937 7.50289062 14.92171875 6.95703125 14.3984375 C5.5625 12.9375 5.5625 12.9375 5.5625 9.9375 C4.840625 9.669375 4.11875 9.40125 3.375 9.125 C0.5625 7.9375 0.5625 7.9375 -1.61328125 6.3828125 C-5.24860247 4.52241298 -8.45415508 4.53313319 -12.4375 4.625 C-13.13617188 4.62177734 -13.83484375 4.61855469 -14.5546875 4.61523438 C-21.96749437 4.69215973 -26.11092422 6.84251447 -31.4375 11.9375 C-33.25430116 14.82099928 -33.25430116 14.82099928 -34.4375 17.9375 C-34.829375 18.845 -35.22125 19.7525 -35.625 20.6875 C-36.73589025 25.13106098 -36.59954985 29.38209874 -36.4375 33.9375 C-38.4175 33.9375 -40.3975 33.9375 -42.4375 33.9375 C-43.175541 17.0445615 -43.175541 17.0445615 -38.4375 9.9375 C-37.7775 9.9375 -37.1175 9.9375 -36.4375 9.9375 C-36.21964844 9.35355469 -36.00179687 8.76960938 -35.77734375 8.16796875 C-34.00162825 5.21189425 -31.9282477 4.04272535 -29 2.25 C-28.03191406 1.64800781 -27.06382813 1.04601563 -26.06640625 0.42578125 C-18.63301703 -3.78242275 -7.67313284 -3.64533569 0 0 Z " fill="#C6B89A" transform="translate(128.4375,58.0625)"/>
<path d="M0 0 C0.33 0 0.66 0 1 0 C1.02316284 7.77121047 1.04093523 15.54241286 1.05181217 23.31364918 C1.05703236 26.92208385 1.06411436 30.53049492 1.07543945 34.13891602 C1.086299 37.62076233 1.09228336 41.10258592 1.09487724 44.58444786 C1.0976261 46.56035995 1.10543327 48.5362629 1.11329651 50.51216125 C1.11337204 51.71317978 1.11344757 52.9141983 1.11352539 54.15161133 C1.115746 55.21084305 1.11796661 56.27007477 1.12025452 57.36140442 C1 60 1 60 0 63 C0.99 63.99 0.99 63.99 2 65 C1.01 65.66 0.02 66.32 -1 67 C1.97 67.99 1.97 67.99 5 69 C1.56453452 70.06980012 -1.47597663 70.04603712 -5.05859375 69.921875 C-6.25033203 69.89609375 -7.44207031 69.8703125 -8.66992188 69.84375 C-11.14694958 69.78211323 -13.62363974 69.70445223 -16.09960938 69.609375 C-28.38063438 69.39888073 -37.87412173 73.14766349 -47.9765625 79.9609375 C-48.64429688 80.30382812 -49.31203125 80.64671875 -50 81 C-50.99 80.67 -51.98 80.34 -53 80 C-50.77312024 78.70425129 -48.54366825 77.41332692 -46.3125 76.125 C-45.37374023 75.57779297 -45.37374023 75.57779297 -44.41601562 75.01953125 C-41.66983303 73.43796012 -39.06425603 72.02514743 -36.10546875 70.8671875 C-33.82512827 70.19751518 -33.82512827 70.19751518 -33 68 C-34.485 67.505 -34.485 67.505 -36 67 C-35.67 66.34 -35.34 65.68 -35 65 C-37.64 65.33 -40.28 65.66 -43 66 C-41.08454614 62.16909228 -36.57520269 61.40152377 -32.734375 60.046875 C-24.49842107 57.861826 -8.78167268 56.10916366 -1 60 C-0.67 40.2 -0.34 20.4 0 0 Z " fill="#7567C0" transform="translate(177,120)"/>
<path d="M0 0 C2.89453125 1.75 2.89453125 1.75 5.8125 4 C6.78832031 4.7425 7.76414063 5.485 8.76953125 6.25 C9.50558594 6.8275 10.24164063 7.405 11 8 C10.28432449 11.20065992 9.80990262 13.09328037 7 15 C4.40497297 14.72683926 2.11067067 14.03338263 -0.3828125 13.28125 C-3.75573618 12.91878656 -4.80825924 13.75962831 -7.5 15.75 C-8.27859375 16.30300781 -9.0571875 16.85601562 -9.859375 17.42578125 C-10.91898438 18.20501953 -10.91898438 18.20501953 -12 19 C-16.33701876 22.05562685 -16.33701876 22.05562685 -19.28125 21.80859375 C-22.65473923 20.80527152 -24.92192024 19.21166425 -27.75 17.125 C-28.71421875 16.42632812 -29.6784375 15.72765625 -30.671875 15.0078125 C-33 13 -33 13 -34 10 C-30.5647952 7.70986347 -29.014669 7.82157027 -25 8 C-25 8.66 -25 9.32 -25 10 C-24.01 9.67 -23.02 9.34 -22 9 C-21.34 9.66 -20.68 10.32 -20 11 C-14.92376518 8.3561277 -11.06818404 5.415883 -6.9921875 1.390625 C-4.36605379 -0.44251931 -3.15135525 -0.54479465 0 0 Z " fill="#76B5E5" transform="translate(149,154)"/>
<path d="M0 0 C0.92296875 -0.00257812 1.8459375 -0.00515625 2.796875 -0.0078125 C4.24707031 0.00378906 4.24707031 0.00378906 5.7265625 0.015625 C6.685625 0.00789063 7.6446875 0.00015625 8.6328125 -0.0078125 C9.55835937 -0.00523438 10.48390625 -0.00265625 11.4375 0 C12.7066626 0.00338379 12.7066626 0.00338379 14.00146484 0.00683594 C16.3515625 0.265625 16.3515625 0.265625 20.3515625 2.265625 C12.1015625 2.265625 3.8515625 2.265625 -4.6484375 2.265625 C-4.3184375 27.015625 -3.9884375 51.765625 -3.6484375 77.265625 C5.9215625 77.265625 15.4915625 77.265625 25.3515625 77.265625 C25.3515625 77.595625 25.3515625 77.925625 25.3515625 78.265625 C21.47691139 78.60309751 17.60179212 78.93486722 13.7265625 79.265625 C12.63214844 79.36101562 11.53773437 79.45640625 10.41015625 79.5546875 C9.34667969 79.64492187 8.28320312 79.73515625 7.1875 79.828125 C6.21345215 79.91191406 5.2394043 79.99570313 4.23583984 80.08203125 C1.24503752 80.27240567 -1.65412591 80.43088685 -4.6484375 80.265625 C-7.08189555 77.83216695 -6.89019816 76.53711553 -6.91949463 73.21594238 C-6.91544617 72.5156189 -6.91139771 71.81529541 -6.90722656 71.09375 C-6.9107312 70.35539917 -6.91423584 69.61704834 -6.91784668 68.85632324 C-6.92666799 66.40932892 -6.92081354 63.9626224 -6.9140625 61.515625 C-6.91540904 59.81933537 -6.91734947 58.12304612 -6.91986084 56.42675781 C-6.92281264 52.8691033 -6.91851269 49.31154912 -6.90917969 45.75390625 C-6.89778509 41.18711359 -6.90434427 36.620556 -6.91632462 32.05377197 C-6.92354172 28.55027486 -6.92125598 25.04683374 -6.91606903 21.54333496 C-6.91473212 19.85917127 -6.9163817 18.17500254 -6.92102814 16.49084473 C-6.92609097 14.13959226 -6.91838683 11.78872377 -6.90722656 9.4375 C-6.91127502 8.73717651 -6.91532349 8.03685303 -6.91949463 7.31530762 C-6.86880816 1.56927188 -5.73385765 0.01532824 0 0 Z " fill="#6C5EB8" transform="translate(50.6484375,109.734375)"/>
<path d="M0 0 C0.33 0.66 0.66 1.32 1 2 C1.99 2.33 2.98 2.66 4 3 C4 4.98 4 6.96 4 9 C5.65 9 7.3 9 9 9 C11.02322144 13.19038749 11.24072919 16.62389946 11.1875 21.25 C11.18105469 22.49265625 11.17460937 23.7353125 11.16796875 25.015625 C11 28 11 28 10 29 C8.00041636 29.04080783 5.99954746 29.04254356 4 29 C4.33 28.01 4.66 27.02 5 26 C5.65230679 19.64000883 4.68899047 14.77634989 2 9 C1.47019531 8.49210937 0.94039062 7.98421875 0.39453125 7.4609375 C-1 6 -1 6 -1 3 C-1.721875 2.731875 -2.44375 2.46375 -3.1875 2.1875 C-6 1 -6 1 -8.03125 -0.5625 C-12.42277924 -2.68892469 -16.50522639 -2.31999729 -21.3125 -2.1875 C-22.24384766 -2.17396484 -23.17519531 -2.16042969 -24.13476562 -2.14648438 C-26.42377646 -2.11126882 -28.71158458 -2.06202099 -31 -2 C-26.67277837 -10.65444326 -6.41416275 -3.14163073 0 0 Z " fill="#D2B560" transform="translate(135,65)"/>
<path d="M0 0 C0.66 0.33 1.32 0.66 2 1 C2.09365714 20.59377559 2.16408362 40.18750543 2.20724869 59.78145885 C2.22782835 68.88034255 2.25586049 77.97908674 2.30175781 87.07788086 C2.34176693 95.01320171 2.36746618 102.94842146 2.37635398 110.88384038 C2.38154503 115.08126399 2.39364866 119.27839851 2.42292023 123.47572899 C2.45031251 127.43611928 2.45839761 131.3961047 2.45243073 135.35658073 C2.45352043 136.8008317 2.46133155 138.2450979 2.4768219 139.6892662 C2.60761762 152.52602455 0.47624614 163.4086513 -7 174 C-7.625 172.125 -7.625 172.125 -8 170 C-7.01 169.01 -7.01 169.01 -6 168 C0.23244496 157.28798522 0.29316959 146.21633459 0.22705078 134.07348633 C0.2264854 132.60390226 0.2268057 131.13431763 0.22793579 129.66473389 C0.22850535 125.70884928 0.21681588 121.75308806 0.20278788 117.79723191 C0.19021382 113.65060964 0.18910479 109.50398398 0.18673706 105.35734558 C0.18054179 97.52013132 0.16415763 89.68297342 0.14403808 81.84578389 C0.12161801 72.91704882 0.11067034 63.98831094 0.10064721 55.0595547 C0.0797895 36.70633795 0.04465183 18.35317352 0 0 Z " fill="#C1BBE8" transform="translate(224,42)"/>
<path d="M0 0 C2.4375 0.3125 2.4375 0.3125 4.4375 2.3125 C4.9375 5.6875 4.9375 5.6875 4.4375 9.3125 C1.75 11.5 1.75 11.5 -1.5625 13.3125 C-2.408125 14.075625 -3.25375 14.83875 -4.125 15.625 C-6.5625 17.3125 -6.5625 17.3125 -9.3125 17.125 C-11.5625 16.3125 -11.5625 16.3125 -12.5625 15.3125 C-13.0625 12.625 -13.0625 12.625 -12.5625 9.3125 C-10.9712129 7.53776694 -9.28190406 6.14927919 -7.38671875 4.70703125 C-5.52360617 3.35919844 -5.52360617 3.35919844 -3.9921875 1.65625 C-2.5625 0.3125 -2.5625 0.3125 0 0 Z " fill="#E3B349" transform="translate(153.5625,43.6875)"/>
<path d="M0 0 C2.58596201 0.96199692 3.8125796 2.21323408 5.68359375 4.2265625 C7.79995682 6.48433067 9.5112816 8.04918773 12.12109375 9.7890625 C12.49609375 12.2890625 12.49609375 12.2890625 12.12109375 14.7890625 C9.12109375 16.7890625 9.12109375 16.7890625 5.68359375 16.7265625 C1.39258109 15.59734864 0.60617772 14.35101619 -1.87890625 10.7890625 C-3.51247576 9.41537905 -5.17140645 8.06968735 -6.87890625 6.7890625 C-3.65175452 -0.40996828 -3.65175452 -0.40996828 0 0 Z " fill="#ECB635" transform="translate(78.87890625,44.2109375)"/>
<path d="M0 0 C3.5 0.125 3.5 0.125 4.5 1.125 C4.6264848 3.37231125 4.67582553 5.62416239 4.6875 7.875 C4.70167969 9.10734375 4.71585938 10.3396875 4.73046875 11.609375 C4.51245621 14.93499008 3.93651971 17.14975759 2.5 20.125 C0.52 20.125 -1.46 20.125 -3.5 20.125 C-4.74674334 16.38476998 -4.64552755 12.8933914 -4.625 9 C-4.62886719 8.25878906 -4.63273437 7.51757812 -4.63671875 6.75390625 C-4.62467352 0.16516691 -4.62467352 0.16516691 0 0 Z " fill="#EEB72E" transform="translate(116.5,27.875)"/>
<path d="M0 0 C5.61 0 11.22 0 17 0 C17 6 17 6 16 8 C10.72 8 5.44 8 0 8 C0 5.36 0 2.72 0 0 Z " fill="#EBB530" transform="translate(58,80)"/>
<path d="M0 0 C1.48831242 0.00667405 2.97660807 0.01863442 4.46484375 0.03515625 C5.22345703 0.03966797 5.98207031 0.04417969 6.76367188 0.04882812 C8.64326246 0.06064945 10.52281274 0.07858547 12.40234375 0.09765625 C12.40234375 2.73765625 12.40234375 5.37765625 12.40234375 8.09765625 C9.75644361 8.12450304 7.11081279 8.14441982 4.46484375 8.16015625 C3.33272461 8.17272461 3.33272461 8.17272461 2.17773438 8.18554688 C0.25240062 8.19418066 -1.67301206 8.14989958 -3.59765625 8.09765625 C-4.59765625 7.09765625 -4.59765625 7.09765625 -4.72265625 4.09765625 C-4.5413536 -0.25360734 -4.46802227 0.12128182 0 0 Z " fill="#E8B534" transform="translate(159.59765625,79.90234375)"/>
<path d="M0 0 C-2.58197154 2.46971191 -4.76420483 3.2525827 -8.1875 3.875 C-13.40498816 4.88036317 -17.51868541 7.22433942 -22 10 C-19.04622502 12.36980013 -19.04622502 12.36980013 -15 12 C-15 12.66 -15 13.32 -15 14 C-17.22687976 15.29574871 -19.45633175 16.58667308 -21.6875 17.875 C-22.31333984 18.23980469 -22.93917969 18.60460937 -23.58398438 18.98046875 C-26.98194942 20.93741197 -30.30067619 22.65607739 -34 24 C-33.01 22.515 -33.01 22.515 -32 21 C-32 20.01 -32 19.02 -32 18 C-31.01 17.67 -30.02 17.34 -29 17 C-28.34 17.33 -27.68 17.66 -27 18 C-25.35 16.68 -23.7 15.36 -22 14 C-22.94875 13.855625 -23.8975 13.71125 -24.875 13.5625 C-28 13 -28 13 -30 12 C-24.46373855 8.40270569 -18.79345729 5.28682651 -12.75 2.625 C-11.61046875 2.12226562 -10.4709375 1.61953125 -9.296875 1.1015625 C-5.97005591 -0.01000502 -3.47819241 -0.22133952 0 0 Z M-7 3 C-5 4 -5 4 -5 4 Z " fill="#7567B9" transform="translate(157,112)"/>
<path d="M0 0 C0.66 0.33 1.32 0.66 2 1 C1.52949219 1.36351563 1.05898437 1.72703125 0.57421875 2.1015625 C-3.4835429 5.37801601 -6.0394563 8.0470475 -8 13 C-8.391875 13.9075 -8.78375 14.815 -9.1875 15.75 C-10.29839025 20.19356098 -10.16204985 24.44459874 -10 29 C-11.98 29 -13.96 29 -16 29 C-16 25.04 -16 21.08 -16 17 C-15.34 17 -14.68 17 -14 17 C-13.67 15.68 -13.34 14.36 -13 13 C-12.01 13 -11.02 13 -10 13 C-9.89429687 12.41476563 -9.78859375 11.82953125 -9.6796875 11.2265625 C-8.90455369 8.68733105 -7.87696252 7.35358454 -6.125 5.375 C-5.35542969 4.48941406 -5.35542969 4.48941406 -4.5703125 3.5859375 C-3 2 -3 2 0 0 Z " fill="#CBB58D" transform="translate(102,63)"/>
<path d="M0 0 C8.87488216 -0.3214243 16.65632478 0.46399868 24 6 C26.57046846 8.48998413 28.99370173 11.03019071 31 14 C31 14.99 31 15.98 31 17 C29.68 17 28.36 17 27 17 C27 15.02 27 13.04 27 11 C25.68 10.67 24.36 10.34 23 10 C23 9.34 23 8.68 23 8 C22.2575 7.87625 21.515 7.7525 20.75 7.625 C18 7 18 7 16.28125 6.03125 C13.15799294 4.61936667 10.14161584 4.31465391 6.75 3.875 C5.48671875 3.70742188 4.2234375 3.53984375 2.921875 3.3671875 C1.95765625 3.24601562 0.9934375 3.12484375 0 3 C0 2.01 0 1.02 0 0 Z " fill="#CEB66F" transform="translate(112,57)"/>
<path d="M0 0 C2.74351424 0.99071348 4.78864599 1.81506524 7 3.75 C7.66 4.1625 8.32 4.575 9 5 C11.47627099 4.36078035 11.47627099 4.36078035 14 3 C15.99620166 2.32204472 17.99538701 1.65266469 20 1 C19.505 1.433125 19.01 1.86625 18.5 2.3125 C16.66781808 3.99740483 16.66781808 3.99740483 17 7 C16 9.1875 16 9.1875 15 11 C14.01 10.34 13.02 9.68 12 9 C11.67 9 11.34 9 11 9 C10.34 11.31 9.68 13.62 9 16 C9.763125 15.505 10.52625 15.01 11.3125 14.5 C14 13 14 13 17 13 C14.95450468 15.42429075 13.69945412 16.83858751 10.5625 17.5625 C6.94175253 16.76770178 5.39148675 14.73312771 3 12 C3.99 11.67 4.98 11.34 6 11 C6.33 9.35 6.66 7.7 7 6 C6.4946875 5.65066406 5.989375 5.30132812 5.46875 4.94140625 C4.49421875 4.25884766 4.49421875 4.25884766 3.5 3.5625 C2.8503125 3.11003906 2.200625 2.65757813 1.53125 2.19140625 C1.0259375 1.79824219 0.520625 1.40507813 0 1 C0 0.67 0 0.34 0 0 Z " fill="#7667BD" transform="translate(105,125)"/>
<path d="M0 0 C3.69679656 0.50626601 5.61374297 2.11029578 8.55078125 4.375 C9.52660156 5.1175 10.50242188 5.86 11.5078125 6.625 C12.24386719 7.2025 12.97992188 7.78 13.73828125 8.375 C13.03650248 11.60986594 12.37351631 13.26681195 9.73828125 15.375 C9.07828125 15.375 8.41828125 15.375 7.73828125 15.375 C7.73828125 14.715 7.73828125 14.055 7.73828125 13.375 C8.39828125 13.375 9.05828125 13.375 9.73828125 13.375 C7.92814649 8.25754301 7.92814649 8.25754301 4.36328125 4.3125 C1.75647225 3.09433891 1.75647225 3.09433891 -0.88671875 4.125 C-2.06234375 4.74375 -2.06234375 4.74375 -3.26171875 5.375 C-4.25171875 5.705 -5.24171875 6.035 -6.26171875 6.375 C-6.55046875 7.035 -6.83921875 7.695 -7.13671875 8.375 C-8.26171875 10.375 -8.26171875 10.375 -10.88671875 11.125 C-11.67046875 11.2075 -12.45421875 11.29 -13.26171875 11.375 C-13.26171875 10.715 -13.26171875 10.055 -13.26171875 9.375 C-11.36328125 7.71875 -11.36328125 7.71875 -8.88671875 5.875 C-1.34210107 0.22252453 -1.34210107 0.22252453 0 0 Z " fill="#7AADDB" transform="translate(146.26171875,153.625)"/>
<path d="M0 0 C0.66 0 1.32 0 2 0 C2 0.66 2 1.32 2 2 C2.7425 1.938125 3.485 1.87625 4.25 1.8125 C7.48503792 2.03307077 8.5401756 2.99745065 11 5 C10.36191406 5.40992188 9.72382812 5.81984375 9.06640625 6.2421875 C8.24011719 6.78101563 7.41382812 7.31984375 6.5625 7.875 C5.73878906 8.40867187 4.91507813 8.94234375 4.06640625 9.4921875 C1.88961129 10.83834306 1.88961129 10.83834306 1 13 C0.34 13 -0.32 13 -1 13 C-1.33 11.35 -1.66 9.7 -2 8 C-4.97 8 -7.94 8 -11 8 C-10.67 6.68 -10.34 5.36 -10 4 C-8.88625 4.185625 -7.7725 4.37125 -6.625 4.5625 C-3.17431139 5.31680657 -3.17431139 5.31680657 -1 4 C-0.34786708 1.97536745 -0.34786708 1.97536745 0 0 Z " fill="#D0C7E9" transform="translate(91,55)"/>
<path d="M0 0 C2.31941564 1.63871757 4.53591818 3.2936676 6.75 5.0625 C7.35199219 5.53494141 7.95398438 6.00738281 8.57421875 6.49414062 C10.05409943 7.65690401 11.52768096 8.8276766 13 10 C12.34 10.66 11.68 11.32 11 12 C10.34 11.34 9.68 10.68 9 10 C8.34 10 7.68 10 7 10 C5.65576661 8.34211215 4.32381517 6.67423683 3 5 C0.25318266 2.25318266 -0.75389589 2.01230521 -4.75 1.8125 C-6.35875 1.9053125 -6.35875 1.9053125 -8 2 C-8.33644531 2.93585938 -8.33644531 2.93585938 -8.6796875 3.890625 C-10.45273948 6.72331159 -11.93696227 6.93255443 -15.125 7.75 C-16.03507812 7.99234375 -16.94515625 8.2346875 -17.8828125 8.484375 C-18.93082031 8.73960937 -18.93082031 8.73960937 -20 9 C-18.14252271 5.28504543 -13.56897344 3.89120021 -10 2 C-8.3603125 1.071875 -8.3603125 1.071875 -6.6875 0.125 C-3.66064708 -1.14205471 -2.99041299 -1.0483673 0 0 Z " fill="#91B7E6" transform="translate(117,154)"/>
<path d="M0 0 C3.5 0.125 3.5 0.125 4.5 1.125 C4.57271741 3.47813555 4.58370868 5.83333668 4.5625 8.1875 C4.55347656 9.47785156 4.54445313 10.76820312 4.53515625 12.09765625 C4.52355469 13.09667969 4.51195313 14.09570312 4.5 15.125 C4.17 15.125 3.84 15.125 3.5 15.125 C3.5 11.495 3.5 7.865 3.5 4.125 C1.19 3.795 -1.12 3.465 -3.5 3.125 C-3.17 8.405 -2.84 13.685 -2.5 19.125 C-0.85 19.125 0.8 19.125 2.5 19.125 C2.5 19.455 2.5 19.785 2.5 20.125 C0.52 20.125 -1.46 20.125 -3.5 20.125 C-4.74674334 16.38476998 -4.64552755 12.8933914 -4.625 9 C-4.62886719 8.25878906 -4.63273437 7.51757812 -4.63671875 6.75390625 C-4.62467352 0.16516691 -4.62467352 0.16516691 0 0 Z " fill="#D3B279" transform="translate(116.5,27.875)"/>
<path d="M0 0 C2.91247047 1.45623523 3.35441627 3.72710185 4.38671875 6.67578125 C5.75242566 11.85154948 6.01440448 16.23418479 3.3125 20.9375 C0.93529308 23.05771158 -0.97042428 24.07429631 -4 25 C-4 24.01 -4 23.02 -4 22 C-3.195625 21.731875 -2.39125 21.46375 -1.5625 21.1875 C-0.716875 20.795625 0.12875 20.40375 1 20 C3.25467791 13.23596628 1.73899822 6.70756455 0 0 Z " fill="#EAC351" transform="translate(136,73)"/>
<path d="M0 0 C0.66 0.33 1.32 0.66 2 1 C1.52949219 1.36351563 1.05898437 1.72703125 0.57421875 2.1015625 C-3.4835429 5.37801601 -6.0394563 8.0470475 -8 13 C-8.5878125 14.3921875 -8.5878125 14.3921875 -9.1875 15.8125 C-10.23705737 19.92999429 -10.16894771 23.77630713 -10 28 C-10.66 28 -11.32 28 -12 28 C-12.45293848 17.78372092 -11.36090111 11.28831715 -4.5 3.48046875 C-3 2 -3 2 0 0 Z " fill="#D5B256" transform="translate(102,63)"/>
<path d="M0 0 C1.34771696 2.21976911 2.04398726 3.50147776 1.8125 6.125 C1 8 1 8 -2 10 C-5.1875 9.625 -5.1875 9.625 -8 9 C-8 8.34 -8 7.68 -8 7 C-7.05125 6.5875 -6.1025 6.175 -5.125 5.75 C-1.99283376 3.9959869 -1.13499394 3.29148243 0 0 Z " fill="#76B8E5" transform="translate(111,157)"/>
<path d="M0 0 C0.66 0.66 1.32 1.32 2 2 C5.01263725 2.27891147 5.01263725 2.27891147 8.5390625 2.1953125 C9.84101562 2.18886719 11.14296875 2.18242187 12.484375 2.17578125 C13.86458595 2.15906929 15.24479429 2.14213939 16.625 2.125 C18.01301452 2.11497006 19.40103589 2.10584423 20.7890625 2.09765625 C24.19288026 2.07401863 27.59635506 2.04106867 31 2 C31 2.33 31 2.66 31 3 C27.12534889 3.33747251 23.25022962 3.66924222 19.375 4 C18.28058594 4.09539062 17.18617187 4.19078125 16.05859375 4.2890625 C14.99511719 4.37929687 13.93164062 4.46953125 12.8359375 4.5625 C11.86188965 4.64628906 10.8878418 4.73007813 9.88427734 4.81640625 C6.91484768 5.00542023 3.97460517 5.0308649 1 5 C0.34 3.68 -0.32 2.36 -1 1 C-0.67 0.67 -0.34 0.34 0 0 Z " fill="#7365B9" transform="translate(45,185)"/>
<path d="M0 0 C0.99 0 1.98 0 3 0 C3.144375 0.94875 3.28875 1.8975 3.4375 2.875 C3.82935399 5.8934494 3.82935399 5.8934494 5 8 C2.25 8.75 2.25 8.75 -1 9 C-3.4375 7.3125 -3.4375 7.3125 -5 5 C-4.75 2.75 -4.75 2.75 -4 1 C-3.34 2.32 -2.68 3.64 -2 5 C-0.55245745 3.55245745 -0.44266439 1.96037087 0 0 Z " fill="#98BFEE" transform="translate(74,158)"/>
<path d="M0 0 C6.28661788 1.76811128 11.4453766 6.6680649 15 12 C15 12.99 15 13.98 15 15 C13.68 15 12.36 15 11 15 C11 13.02 11 11.04 11 9 C10.4225 8.938125 9.845 8.87625 9.25 8.8125 C6.12812615 7.68515666 5.00227698 5.5835832 3 3 C2.01 2.67 1.02 2.34 0 2 C0 1.34 0 0.68 0 0 Z " fill="#CABA9B" transform="translate(128,59)"/>
<path d="M0 0 C2.5625 2.125 2.5625 2.125 3.5625 4.125 C1.0875 3.63 1.0875 3.63 -1.4375 3.125 C-1.4375 2.465 -1.4375 1.805 -1.4375 1.125 C-9.292324 -0.68765169 -17.54054631 -0.31080976 -25.4375 1.125 C-24.4375 -0.875 -24.4375 -0.875 -22.86328125 -1.48046875 C-15.92150036 -2.60948625 -6.28024106 -3.53427792 0 0 Z " fill="#E7C14F" transform="translate(128.4375,63.875)"/>
<path d="M0 0 C1.34709162 0.87500817 2.67738986 1.77590933 4 2.6875 C5.11375 3.43580078 5.11375 3.43580078 6.25 4.19921875 C8 6 8 6 8.4375 8.58203125 C8.293125 9.37996094 8.14875 10.17789063 8 11 C5 13 5 13 1.375 12.75 C0.26125 12.5025 -0.8525 12.255 -2 12 C-2.33 11.34 -2.66 10.68 -3 10 C-0.36 10.33 2.28 10.66 5 11 C4.51428134 6.62853208 3.16325079 4.9591701 0 2 C0 1.34 0 0.68 0 0 Z " fill="#D2B56F" transform="translate(83,48)"/>
<path d="M0 0 C0.33 0.66 0.66 1.32 1 2 C1.66 2 2.32 2 3 2 C3.33 1.34 3.66 0.68 4 0 C4.75 1.75 4.75 1.75 5 4 C3.0625 6.25 3.0625 6.25 1 8 C-1.475 7.01 -1.475 7.01 -4 6 C-2.68 4.02 -1.36 2.04 0 0 Z " fill="#7F6FCB" transform="translate(107,193)"/>
<path d="M0 0 C2.96991489 4.45487234 3.13593868 6.68613727 3.125 12.0625 C3.12757813 13.33222656 3.13015625 14.60195312 3.1328125 15.91015625 C3 19 3 19 2 20 C0.00041636 20.04080783 -2.00045254 20.04254356 -4 20 C-3.35546875 19.77570313 -2.7109375 19.55140625 -2.046875 19.3203125 C0.24388852 18.17110544 0.24388852 18.17110544 0.609375 15.6171875 C0.65578125 14.71226563 0.7021875 13.80734375 0.75 12.875 C0.80671875 11.96492188 0.8634375 11.05484375 0.921875 10.1171875 C0.94765625 9.41851562 0.9734375 8.71984375 1 8 C0.67 8 0.34 8 0 8 C0 5.36 0 2.72 0 0 Z " fill="#D4BB79" transform="translate(143,74)"/>
<path d="M0 0 C0.99 0 1.98 0 3 0 C3.66 2.31 4.32 4.62 5 7 C4.34 7.66 3.68 8.32 3 9 C3 8.34 3 7.68 3 7 C1.35 6.67 -0.3 6.34 -2 6 C-1.125 1.125 -1.125 1.125 0 0 Z " fill="#F3BC23" transform="translate(77,46)"/>
<path d="M0 0 C-2.58868863 2.47613695 -4.8200876 3.27995203 -8.25 3.9375 C-11.65723377 4.5907878 -14.37379593 5.55798891 -17.4375 7.1875 C-18.613125 7.785625 -19.78875 8.38375 -21 9 C-21.66 8.67 -22.32 8.34 -23 8 C-20.730384 6.85170023 -18.45939222 5.70628022 -16.1875 4.5625 C-15.54490234 4.23701172 -14.90230469 3.91152344 -14.24023438 3.57617188 C-9.17455669 1.03020951 -5.67301303 -0.12606696 0 0 Z M-7 3 C-5 4 -5 4 -5 4 Z " fill="#6E61B7" transform="translate(157,112)"/>
<path d="M0 0 C0.99 0.33 1.98 0.66 3 1 C3 4.96 3 8.92 3 13 C2.34 13 1.68 13 1 13 C0.63447197 11.58622218 0.28304505 10.16879424 -0.0625 8.75 C-0.25972656 7.96109375 -0.45695312 7.1721875 -0.66015625 6.359375 C-1.01497267 3.89605178 -0.76877544 2.34395868 0 0 Z " fill="#C9C6DB" transform="translate(83,79)"/>
<path d="M0 0 C5.94 0 11.88 0 18 0 C19 6 19 6 18 9 C17.34 9 16.68 9 16 9 C16 6.36 16 3.72 16 1 C10.72 1 5.44 1 0 1 C0 0.67 0 0.34 0 0 Z " fill="#CBBDC0" transform="translate(156,79)"/>
<path d="M0 0 C2.4375 0.3125 2.4375 0.3125 4.4375 2.3125 C4.5625 5.9375 4.5625 5.9375 4.4375 9.3125 C3.1175 9.6425 1.7975 9.9725 0.4375 10.3125 C0.7675 8.3325 1.0975 6.3525 1.4375 4.3125 C-1.0375 3.3225 -1.0375 3.3225 -3.5625 2.3125 C-3.5625 2.9725 -3.5625 3.6325 -3.5625 4.3125 C-4.2225 3.9825 -4.8825 3.6525 -5.5625 3.3125 C-3.75137927 1.02476855 -2.95529457 0.36040178 0 0 Z " fill="#D1B594" transform="translate(153.5625,43.6875)"/>
<path d="M0 0 C-0.66 0.4125 -1.32 0.825 -2 1.25 C-2.66 1.8275 -3.32 2.405 -4 3 C-4 4.32 -4 5.64 -4 7 C-5.32 7 -6.64 7 -8 7 C-9.34164079 7.2981424 -10.67851173 7.62243192 -12 8 C-10.67667681 4.03003043 -7.9910601 2.23963605 -4.75390625 -0.14453125 C-3 -1 -3 -1 0 0 Z " fill="#D6CEFC" transform="translate(131,134)"/>
<path d="M0 0 C5.28 0 10.56 0 16 0 C12 2 12 2 8 2 C8 2.66 8 3.32 8 4 C6.02 4 4.04 4 2 4 C2.33 3.34 2.66 2.68 3 2 C2.01 1.34 1.02 0.68 0 0 Z " fill="#D0C7DB" transform="translate(58,88)"/>
<path d="M0 0 C2.37320114 0.5476618 4.62820821 1.21385811 6.9375 2 C9.8919937 3.04940184 9.8919937 3.04940184 12.625 3.4375 C15.35329496 4.08367512 16.8837847 5.19729808 19 7 C11.58783319 6.64134677 6.43520528 4.64079463 0 1 C0 0.67 0 0.34 0 0 Z " fill="#C5BDEA" transform="translate(24,225)"/>
<path d="M0 0 C0.66 0.66 1.32 1.32 2 2 C0.33333333 3.66666667 -1.33333333 5.33333333 -3 7 C-4.299375 8.3921875 -4.299375 8.3921875 -5.625 9.8125 C-8 12 -8 12 -11 12 C-7.72469104 7.36279281 -4.69564393 3.31457218 0 0 Z " fill="#CAC6EC" transform="translate(22,13)"/>
<path d="M0 0 C1.875 0.9375 1.875 0.9375 3.875 3.9375 C2.885 3.9375 1.895 3.9375 0.875 3.9375 C0.875 3.2775 0.875 2.6175 0.875 1.9375 C-1.105 2.9275 -1.105 2.9275 -3.125 3.9375 C-2.795 5.9175 -2.465 7.8975 -2.125 9.9375 C-3.445 9.2775 -4.765 8.6175 -6.125 7.9375 C-6.125 3.9375 -6.125 3.9375 -4.375 1.625 C-2.125 -0.0625 -2.125 -0.0625 0 0 Z " fill="#C9B17F" transform="translate(79.125,44.0625)"/>
<path d="M0 0 C0.33 0 0.66 0 1 0 C1.33 1.98 1.66 3.96 2 6 C2.66 5.67 3.32 5.34 4 5 C4 7.31 4 9.62 4 12 C2.68 12 1.36 12 0 12 C0 8.04 0 4.08 0 0 Z " fill="#F2B61E" transform="translate(115,35)"/>
<path d="M0 0 C5.73842251 -0.20413361 10.60539047 -0.27141454 16 2 C16 2.33 16 2.66 16 3 C10.72 2.67 5.44 2.34 0 2 C0 1.34 0 0.68 0 0 Z " fill="#CDBB7E" transform="translate(112,57)"/>
<path d="M0 0 C5.31027254 1.46032495 9.46330032 3.98320986 14 7 C12 8 12 8 8.9375 7.1875 C6 6 6 6 5 4 C3.35636866 3.27840576 1.68949614 2.60648579 0 2 C0 1.34 0 0.68 0 0 Z " fill="#7467B9" transform="translate(91,117)"/>
<path d="M0 0 C2.475 0.495 2.475 0.495 5 1 C5 2.32 5 3.64 5 5 C5.66 5 6.32 5 7 5 C7.33 6.65 7.66 8.3 8 10 C7.01 9.67 6.02 9.34 5 9 C4.67 7.35 4.34 5.7 4 4 C3.01 3.67 2.02 3.34 1 3 C0.67 2.01 0.34 1.02 0 0 Z " fill="#D8B558" transform="translate(130,64)"/>
<path d="M0 0 C2.125 0.9375 2.125 0.9375 4 2 C3.67 2.99 3.34 3.98 3 5 C1.35 5 -0.3 5 -2 5 C-2 3.68 -2 2.36 -2 1 C-1.34 0.67 -0.68 0.34 0 0 Z " fill="#F2B920" transform="translate(145,54)"/>
<path d="M0 0 C0.66 0.33 1.32 0.66 2 1 C1.50168276 4.68754757 0.89932357 6.60490662 -2 9 C-2.6875 6.75 -2.6875 6.75 -3 4 C-1.5625 1.6875 -1.5625 1.6875 0 0 Z " fill="#EEB73F" transform="translate(154,47)"/>
<path d="M0 0 C0.66 0.33 1.32 0.66 2 1 C1.8125 2.875 1.8125 2.875 1 5 C-1.5625 6.25 -1.5625 6.25 -4 7 C-3.34 6.01 -2.68 5.02 -2 4 C-2 3.01 -2 2.02 -2 1 C-1.34 0.67 -0.68 0.34 0 0 Z " fill="#786AC0" transform="translate(127,129)"/>
<path d="M0 0 C0 0.66 0 1.32 0 2 C0.99 2.33 1.98 2.66 3 3 C-0.96 3 -4.92 3 -9 3 C-5.73209435 0.82139623 -3.91954654 0 0 0 Z " fill="#CFC9EB" transform="translate(169,76)"/>
<path d="M0 0 C0.99 0 1.98 0 3 0 C1.63016497 3.16115776 1.0109362 3.9927092 -2 6 C-2.99 5.67 -3.98 5.34 -5 5 C-4.34 5 -3.68 5 -3 5 C-2.5359375 4.0409375 -2.5359375 4.0409375 -2.0625 3.0625 C-1 1 -1 1 0 0 Z " fill="#73B0DC" transform="translate(142,165)"/>
<path d="M0 0 C0.99 0 1.98 0 3 0 C2.67 0.99 2.34 1.98 2 3 C1.77674186 5.05893621 1.59294241 7.12233653 1.4375 9.1875 C1.35371094 10.27417969 1.26992187 11.36085938 1.18359375 12.48046875 C1.12300781 13.31191406 1.06242187 14.14335938 1 15 C0.67 15 0.34 15 0 15 C0 10.05 0 5.1 0 0 Z " fill="#C4AE7A" transform="translate(89,76)"/>
<path d="M0 0 C0.66 0 1.32 0 2 0 C2 0.66 2 1.32 2 2 C1.01 2.495 1.01 2.495 0 3 C0 4.98 0 6.96 0 9 C-0.99 8.34 -1.98 7.68 -3 7 C-2.25 2.25 -2.25 2.25 0 0 Z " fill="#96B9E8" transform="translate(74,156)"/>
<path d="M0 0 C1.051875 0.680625 1.051875 0.680625 2.125 1.375 C5.02984591 3.01686943 7.8139348 4.03677099 11 5 C11 5.33 11 5.66 11 6 C4.12205567 6.31263383 4.12205567 6.31263383 1 4 C0.25 1.875 0.25 1.875 0 0 Z " fill="#D5CBC9" transform="translate(107,103)"/>
<path d="M0 0 C0.99 0 1.98 0 3 0 C3 0.66 3 1.32 3 2 C2.34 2 1.68 2 1 2 C0.67 3.65 0.34 5.3 0 7 C-0.66 6.67 -1.32 6.34 -2 6 C-1.125 1.125 -1.125 1.125 0 0 Z " fill="#E2B83C" transform="translate(77,46)"/>
<path d="M0 0 C0.66 1.32 1.32 2.64 2 4 C1.01 4.33 0.02 4.66 -1 5 C-3.1875 3.5625 -3.1875 3.5625 -5 2 C-3.35 1.34 -1.7 0.68 0 0 Z " fill="#90BBE9" transform="translate(95,170)"/>
<path d="M0 0 C2.29633824 3.44450737 2.54016485 5.93812283 3 10 C2.01 9.34 1.02 8.68 0 8 C-0.40843923 5.28796348 -0.13336867 2.7562858 0 0 Z " fill="#CEBC98" transform="translate(143,74)"/>
<path d="M0 0 C2.4294516 3.6441774 2.16179575 5.71241272 2 10 C1.67 8.68 1.34 7.36 1 6 C0.34 6 -0.32 6 -1 6 C-0.67 4.02 -0.34 2.04 0 0 Z " fill="#C4B8A3" transform="translate(87,74)"/>
<path d="M0 0 C1.32 0 2.64 0 4 0 C3.625 1.9375 3.625 1.9375 3 4 C2.01 4.495 2.01 4.495 1 5 C0.34 4.34 -0.32 3.68 -1 3 C-0.67 2.01 -0.34 1.02 0 0 Z " fill="#ECBC2F" transform="translate(150,46)"/>
</svg>
